<?xml version="1.0" encoding="UTF-8" standalone="no"?>
<!DOCTYPE svg PUBLIC "-//W3C//DTD SVG 1.1//EN"
 "http://www.w3.org/Graphics/SVG/1.1/DTD/svg11.dtd">
<!-- Generated by graphviz version 2.43.0 (0)
 -->
<!-- Title: G Pages: 1 -->
<svg width="904pt" height="808pt"
 viewBox="0.00 0.00 904.00 808.00" xmlns="http://www.w3.org/2000/svg" xmlns:xlink="http://www.w3.org/1999/xlink">
<g id="graph0" class="graph" transform="scale(1 1) rotate(0) translate(4 804)">
<title>G</title>
<polygon fill="white" stroke="transparent" points="-4,4 -4,-804 900,-804 900,4 -4,4"/>
<g id="clust1" class="cluster">
<title>cluster_module.jenkins&#45;master</title>
<polygon fill="none" stroke="black" points="218,-336 218,-519 611.5,-519 611.5,-336 218,-336"/>
<text text-anchor="middle" x="414.75" y="-503.8" font-family="sans-serif" font-size="14.00">module.jenkins&#45;master</text>
</g>
<g id="clust2" class="cluster">
<title>cluster_module.jenkins&#45;slave</title>
<polygon fill="none" stroke="black" points="218,-573 218,-756 611.5,-756 611.5,-573 218,-573"/>
<text text-anchor="middle" x="414.75" y="-740.8" font-family="sans-serif" font-size="14.00">module.jenkins&#45;slave</text>
</g>
<g id="clust3" class="cluster">
<title>cluster_module.network</title>
<polygon fill="none" stroke="black" points="38,-199 38,-328 888,-328 888,-199 38,-199"/>
<text text-anchor="middle" x="463" y="-312.8" font-family="sans-serif" font-size="14.00">module.network</text>
</g>
<g id="clust4" class="cluster">
<title>cluster_module.sonarqube</title>
<polygon fill="none" stroke="black" points="218,-8 218,-191 611.5,-191 611.5,-8 218,-8"/>
<text text-anchor="middle" x="414.75" y="-175.8" font-family="sans-serif" font-size="14.00">module.sonarqube</text>
</g>
<!-- aws_key_pair.key_pair -->
<g id="node1" class="node">
<title>aws_key_pair.key_pair</title>
<polygon fill="none" stroke="black" points="404.5,-563 246.5,-563 246.5,-527 404.5,-527 404.5,-563"/>
<text text-anchor="middle" x="325.5" y="-541.3" font-family="sans-serif" font-size="14.00">aws_key_pair.key_pair</text>
</g>
<!-- tls_private_key.private_key -->
<g id="node3" class="node">
<title>tls_private_key.private_key</title>
<polygon fill="none" stroke="black" points="190,-681 0,-681 0,-645 190,-645 190,-681"/>
<text text-anchor="middle" x="95" y="-659.3" font-family="sans-serif" font-size="14.00">tls_private_key.private_key</text>
</g>
<!-- aws_key_pair.key_pair&#45;&gt;tls_private_key.private_key -->
<g id="edge1" class="edge">
<title>aws_key_pair.key_pair&#45;&gt;tls_private_key.private_key</title>
<path fill="none" stroke="black" d="M246.39,-558.45C236.61,-561.33 226.92,-564.81 218,-569 181.03,-586.36 144.75,-616.47 121.49,-637.93"/>
<polygon fill="black" stroke="black" points="119.02,-635.45 114.12,-644.84 123.81,-640.55 119.02,-635.45"/>
</g>
<!-- local_file.private_key -->
<g id="node2" class="node">
<title>local_file.private_key</title>
<polygon fill="none" stroke="black" points="401,-800 250,-800 250,-764 401,-764 401,-800"/>
<text text-anchor="middle" x="325.5" y="-778.3" font-family="sans-serif" font-size="14.00">local_file.private_key</text>
</g>
<!-- local_file.private_key&#45;&gt;tls_private_key.private_key -->
<g id="edge2" class="edge">
<title>local_file.private_key&#45;&gt;tls_private_key.private_key</title>
<path fill="none" stroke="black" d="M249.72,-771.21C238.81,-768.31 227.92,-764.64 218,-760 180.13,-742.28 143.52,-710.6 120.46,-688.28"/>
<polygon fill="black" stroke="black" points="122.75,-685.63 113.17,-681.11 117.84,-690.62 122.75,-685.63"/>
</g>
<!-- module.jenkins&#45;master.data.aws_ami.amazon_linux -->
<g id="node4" class="node">
<title>module.jenkins&#45;master.data.aws_ami.amazon_linux</title>
<polygon fill="none" stroke="black" points="425,-434 226,-434 226,-398 425,-398 425,-434"/>
<text text-anchor="middle" x="325.5" y="-412.3" font-family="sans-serif" font-size="14.00">data.aws_ami.amazon_linux</text>
</g>
<!-- module.jenkins&#45;master.data.aws_ami.ubuntu -->
<g id="node5" class="node">
<title>module.jenkins&#45;master.data.aws_ami.ubuntu</title>
<polygon fill="none" stroke="black" points="404.5,-488 246.5,-488 246.5,-452 404.5,-452 404.5,-488"/>
<text text-anchor="middle" x="325.5" y="-466.3" font-family="sans-serif" font-size="14.00">data.aws_ami.ubuntu</text>
</g>
<!-- module.jenkins&#45;master.aws_instance.this -->
<g id="node6" class="node">
<title>module.jenkins&#45;master.aws_instance.this</title>
<polygon fill="none" stroke="black" points="603.5,-434 470.5,-434 470.5,-398 603.5,-398 603.5,-434"/>
<text text-anchor="middle" x="537" y="-412.3" font-family="sans-serif" font-size="14.00">aws_instance.this</text>
</g>
<!-- module.jenkins&#45;master.aws_instance.this&#45;&gt;aws_key_pair.key_pair -->
<g id="edge3" class="edge">
<title>module.jenkins&#45;master.aws_instance.this&#45;&gt;aws_key_pair.key_pair</title>
<path fill="none" stroke="black" d="M522.41,-434.28C503.4,-458.48 466.49,-500.69 425,-523 421.5,-524.88 417.84,-526.61 414.09,-528.18"/>
<polygon fill="black" stroke="black" points="412.68,-524.97 404.58,-531.8 415.18,-531.51 412.68,-524.97"/>
</g>
<!-- module.jenkins&#45;master.aws_instance.this&#45;&gt;module.jenkins&#45;master.data.aws_ami.amazon_linux -->
<g id="edge4" class="edge">
<title>module.jenkins&#45;master.aws_instance.this&#45;&gt;module.jenkins&#45;master.data.aws_ami.amazon_linux</title>
<path fill="none" stroke="black" d="M470.29,-416C459.13,-416 447.29,-416 435.37,-416"/>
<polygon fill="black" stroke="black" points="435.36,-412.5 425.36,-416 435.36,-419.5 435.36,-412.5"/>
</g>
<!-- module.jenkins&#45;master.aws_instance.this&#45;&gt;module.jenkins&#45;master.data.aws_ami.ubuntu -->
<g id="edge5" class="edge">
<title>module.jenkins&#45;master.aws_instance.this&#45;&gt;module.jenkins&#45;master.data.aws_ami.ubuntu</title>
<path fill="none" stroke="black" d="M470.29,-432.94C450.09,-438.14 427.63,-443.93 406.58,-449.36"/>
<polygon fill="black" stroke="black" points="405.5,-446.02 396.69,-451.91 407.25,-452.8 405.5,-446.02"/>
</g>
<!-- module.jenkins&#45;master.aws_security_group.this -->
<g id="node7" class="node">
<title>module.jenkins&#45;master.aws_security_group.this</title>
<polygon fill="none" stroke="black" points="413,-380 238,-380 238,-344 413,-344 413,-380"/>
<text text-anchor="middle" x="325.5" y="-358.3" font-family="sans-serif" font-size="14.00">aws_security_group.this</text>
</g>
<!-- module.jenkins&#45;master.aws_instance.this&#45;&gt;module.jenkins&#45;master.aws_security_group.this -->
<g id="edge6" class="edge">
<title>module.jenkins&#45;master.aws_instance.this&#45;&gt;module.jenkins&#45;master.aws_security_group.this</title>
<path fill="none" stroke="black" d="M470.29,-399.06C450.09,-393.86 427.63,-388.07 406.58,-382.64"/>
<polygon fill="black" stroke="black" points="407.25,-379.2 396.69,-380.09 405.5,-385.98 407.25,-379.2"/>
</g>
<!-- module.network.aws_subnet.this -->
<g id="node15" class="node">
<title>module.network.aws_subnet.this</title>
<polygon fill="none" stroke="black" points="387,-297 264,-297 264,-261 387,-261 387,-297"/>
<text text-anchor="middle" x="325.5" y="-275.3" font-family="sans-serif" font-size="14.00">aws_subnet.this</text>
</g>
<!-- module.jenkins&#45;master.aws_instance.this&#45;&gt;module.network.aws_subnet.this -->
<g id="edge7" class="edge">
<title>module.jenkins&#45;master.aws_instance.this&#45;&gt;module.network.aws_subnet.this</title>
<path fill="none" stroke="black" d="M514.2,-397.9C492.32,-380.14 457.34,-352.76 425,-332 408.32,-321.29 389.27,-310.69 372.41,-301.82"/>
<polygon fill="black" stroke="black" points="373.78,-298.59 363.29,-297.08 370.55,-304.8 373.78,-298.59"/>
</g>
<!-- module.network.aws_vpc.this -->
<g id="node16" class="node">
<title>module.network.aws_vpc.this</title>
<polygon fill="none" stroke="black" points="144,-297 46,-297 46,-261 144,-261 144,-297"/>
<text text-anchor="middle" x="95" y="-275.3" font-family="sans-serif" font-size="14.00">aws_vpc.this</text>
</g>
<!-- module.jenkins&#45;master.aws_security_group.this&#45;&gt;module.network.aws_vpc.this -->
<g id="edge8" class="edge">
<title>module.jenkins&#45;master.aws_security_group.this&#45;&gt;module.network.aws_vpc.this</title>
<path fill="none" stroke="black" d="M255.32,-343.98C242.81,-340.31 229.94,-336.25 218,-332 192.87,-323.05 165.59,-311.39 143.2,-301.28"/>
<polygon fill="black" stroke="black" points="144.48,-298.02 133.93,-297.06 141.58,-304.39 144.48,-298.02"/>
</g>
<!-- module.jenkins&#45;slave.data.aws_ami.amazon_linux -->
<g id="node8" class="node">
<title>module.jenkins&#45;slave.data.aws_ami.amazon_linux</title>
<polygon fill="none" stroke="black" points="425,-671 226,-671 226,-635 425,-635 425,-671"/>
<text text-anchor="middle" x="325.5" y="-649.3" font-family="sans-serif" font-size="14.00">data.aws_ami.amazon_linux</text>
</g>
<!-- module.jenkins&#45;slave.data.aws_ami.ubuntu -->
<g id="node9" class="node">
<title>module.jenkins&#45;slave.data.aws_ami.ubuntu</title>
<polygon fill="none" stroke="black" points="404.5,-725 246.5,-725 246.5,-689 404.5,-689 404.5,-725"/>
<text text-anchor="middle" x="325.5" y="-703.3" font-family="sans-serif" font-size="14.00">data.aws_ami.ubuntu</text>
</g>
<!-- module.jenkins&#45;slave.aws_instance.this -->
<g id="node10" class="node">
<title>module.jenkins&#45;slave.aws_instance.this</title>
<polygon fill="none" stroke="black" points="603.5,-617 470.5,-617 470.5,-581 603.5,-581 603.5,-617"/>
<text text-anchor="middle" x="537" y="-595.3" font-family="sans-serif" font-size="14.00">aws_instance.this</text>
</g>
<!-- module.jenkins&#45;slave.aws_instance.this&#45;&gt;aws_key_pair.key_pair -->
<g id="edge9" class="edge">
<title>module.jenkins&#45;slave.aws_instance.this&#45;&gt;aws_key_pair.key_pair</title>
<path fill="none" stroke="black" d="M470.33,-580.96C455.45,-576.95 439.69,-572.78 425,-569 420.45,-567.83 415.77,-566.64 411.04,-565.45"/>
<polygon fill="black" stroke="black" points="411.86,-562.05 401.31,-563.02 410.16,-568.84 411.86,-562.05"/>
</g>
<!-- module.jenkins&#45;slave.aws_instance.this&#45;&gt;module.jenkins&#45;slave.data.aws_ami.amazon_linux -->
<g id="edge10" class="edge">
<title>module.jenkins&#45;slave.aws_instance.this&#45;&gt;module.jenkins&#45;slave.data.aws_ami.amazon_linux</title>
<path fill="none" stroke="black" d="M470.29,-615.94C450.09,-621.14 427.63,-626.93 406.58,-632.36"/>
<polygon fill="black" stroke="black" points="405.5,-629.02 396.69,-634.91 407.25,-635.8 405.5,-629.02"/>
</g>
<!-- module.jenkins&#45;slave.aws_instance.this&#45;&gt;module.jenkins&#45;slave.data.aws_ami.ubuntu -->
<g id="edge11" class="edge">
<title>module.jenkins&#45;slave.aws_instance.this&#45;&gt;module.jenkins&#45;slave.data.aws_ami.ubuntu</title>
<path fill="none" stroke="black" d="M515.78,-617.3C494.58,-635.59 459.6,-663.33 425,-680 420.98,-681.94 416.8,-683.75 412.53,-685.45"/>
<polygon fill="black" stroke="black" points="411.21,-682.21 403.07,-688.99 413.66,-688.77 411.21,-682.21"/>
</g>
<!-- module.jenkins&#45;slave.aws_security_group.this -->
<g id="node11" class="node">
<title>module.jenkins&#45;slave.aws_security_group.this</title>
<polygon fill="none" stroke="black" points="413,-617 238,-617 238,-581 413,-581 413,-617"/>
<text text-anchor="middle" x="325.5" y="-595.3" font-family="sans-serif" font-size="14.00">aws_security_group.this</text>
</g>
<!-- module.jenkins&#45;slave.aws_instance.this&#45;&gt;module.jenkins&#45;slave.aws_security_group.this -->
<g id="edge12" class="edge">
<title>module.jenkins&#45;slave.aws_instance.this&#45;&gt;module.jenkins&#45;slave.aws_security_group.this</title>
<path fill="none" stroke="black" d="M470.29,-599C455.42,-599 439.34,-599 423.49,-599"/>
<polygon fill="black" stroke="black" points="423.12,-595.5 413.12,-599 423.12,-602.5 423.12,-595.5"/>
</g>
<!-- module.jenkins&#45;slave.aws_instance.this&#45;&gt;module.network.aws_subnet.this -->
<g id="edge13" class="edge">
<title>module.jenkins&#45;slave.aws_instance.this&#45;&gt;module.network.aws_subnet.this</title>
<path fill="none" stroke="black" d="M511.54,-580.79C494.65,-566.86 473.13,-546.15 461,-523 420.92,-446.48 476.01,-401.71 425,-332 415.78,-319.4 402.64,-309.49 388.95,-301.82"/>
<polygon fill="black" stroke="black" points="390.39,-298.62 379.9,-297.1 387.15,-304.83 390.39,-298.62"/>
</g>
<!-- module.jenkins&#45;slave.aws_security_group.this&#45;&gt;module.network.aws_vpc.this -->
<g id="edge14" class="edge">
<title>module.jenkins&#45;slave.aws_security_group.this&#45;&gt;module.network.aws_vpc.this</title>
<path fill="none" stroke="black" d="M237.85,-584.67C230.67,-581.28 223.92,-577.11 218,-572 135.75,-500.98 107.82,-365.48 99.33,-307.01"/>
<polygon fill="black" stroke="black" points="102.79,-306.45 97.97,-297.02 95.85,-307.4 102.79,-306.45"/>
</g>
<!-- module.network.aws_internet_gateway.this -->
<g id="node12" class="node">
<title>module.network.aws_internet_gateway.this</title>
<polygon fill="none" stroke="black" points="421,-243 230,-243 230,-207 421,-207 421,-243"/>
<text text-anchor="middle" x="325.5" y="-221.3" font-family="sans-serif" font-size="14.00">aws_internet_gateway.this</text>
</g>
<!-- module.network.aws_internet_gateway.this&#45;&gt;module.network.aws_vpc.this -->
<g id="edge15" class="edge">
<title>module.network.aws_internet_gateway.this&#45;&gt;module.network.aws_vpc.this</title>
<path fill="none" stroke="black" d="M248.1,-243.06C217.34,-250.32 182.46,-258.57 153.87,-265.32"/>
<polygon fill="black" stroke="black" points="152.96,-261.94 144.03,-267.65 154.57,-268.75 152.96,-261.94"/>
</g>
<!-- module.network.aws_route_table.this -->
<g id="node13" class="node">
<title>module.network.aws_route_table.this</title>
<polygon fill="none" stroke="black" points="613,-247 461,-247 461,-211 613,-211 613,-247"/>
<text text-anchor="middle" x="537" y="-225.3" font-family="sans-serif" font-size="14.00">aws_route_table.this</text>
</g>
<!-- module.network.aws_route_table.this&#45;&gt;module.network.aws_internet_gateway.this -->
<g id="edge16" class="edge">
<title>module.network.aws_route_table.this&#45;&gt;module.network.aws_internet_gateway.this</title>
<path fill="none" stroke="black" d="M460.96,-227.57C451.27,-227.38 441.22,-227.19 431.16,-227"/>
<polygon fill="black" stroke="black" points="431.19,-223.5 421.12,-226.81 431.05,-230.5 431.19,-223.5"/>
</g>
<!-- module.network.aws_route_table_association.this -->
<g id="node14" class="node">
<title>module.network.aws_route_table_association.this</title>
<polygon fill="none" stroke="black" points="880,-269 649,-269 649,-233 880,-233 880,-269"/>
<text text-anchor="middle" x="764.5" y="-247.3" font-family="sans-serif" font-size="14.00">aws_route_table_association.this</text>
</g>
<!-- module.network.aws_route_table_association.this&#45;&gt;module.network.aws_route_table.this -->
<g id="edge17" class="edge">
<title>module.network.aws_route_table_association.this&#45;&gt;module.network.aws_route_table.this</title>
<path fill="none" stroke="black" d="M648.77,-239.81C640.18,-238.97 631.61,-238.13 623.26,-237.32"/>
<polygon fill="black" stroke="black" points="623.48,-233.82 613.18,-236.33 622.8,-240.79 623.48,-233.82"/>
</g>
<!-- module.network.aws_route_table_association.this&#45;&gt;module.network.aws_subnet.this -->
<g id="edge18" class="edge">
<title>module.network.aws_route_table_association.this&#45;&gt;module.network.aws_subnet.this</title>
<path fill="none" stroke="black" d="M648.97,-258.34C569.23,-263.45 465.4,-270.1 397.4,-274.46"/>
<polygon fill="black" stroke="black" points="396.97,-270.98 387.22,-275.11 397.42,-277.96 396.97,-270.98"/>
</g>
<!-- module.network.aws_subnet.this&#45;&gt;module.network.aws_vpc.this -->
<g id="edge19" class="edge">
<title>module.network.aws_subnet.this&#45;&gt;module.network.aws_vpc.this</title>
<path fill="none" stroke="black" d="M263.87,-279C229.96,-279 187.9,-279 154.36,-279"/>
<polygon fill="black" stroke="black" points="154.25,-275.5 144.25,-279 154.25,-282.5 154.25,-275.5"/>
</g>
<!-- module.sonarqube.data.aws_ami.amazon_linux -->
<g id="node17" class="node">
<title>module.sonarqube.data.aws_ami.amazon_linux</title>
<polygon fill="none" stroke="black" points="425,-106 226,-106 226,-70 425,-70 425,-106"/>
<text text-anchor="middle" x="325.5" y="-84.3" font-family="sans-serif" font-size="14.00">data.aws_ami.amazon_linux</text>
</g>
<!-- module.sonarqube.data.aws_ami.ubuntu -->
<g id="node18" class="node">
<title>module.sonarqube.data.aws_ami.ubuntu</title>
<polygon fill="none" stroke="black" points="404.5,-160 246.5,-160 246.5,-124 404.5,-124 404.5,-160"/>
<text text-anchor="middle" x="325.5" y="-138.3" font-family="sans-serif" font-size="14.00">data.aws_ami.ubuntu</text>
</g>
<!-- module.sonarqube.aws_instance.this -->
<g id="node19" class="node">
<title>module.sonarqube.aws_instance.this</title>
<polygon fill="none" stroke="black" points="603.5,-160 470.5,-160 470.5,-124 603.5,-124 603.5,-160"/>
<text text-anchor="middle" x="537" y="-138.3" font-family="sans-serif" font-size="14.00">aws_instance.this</text>
</g>
<!-- module.sonarqube.aws_instance.this&#45;&gt;aws_key_pair.key_pair -->
<g id="edge20" class="edge">
<title>module.sonarqube.aws_instance.this&#45;&gt;aws_key_pair.key_pair</title>
<path fill="none" stroke="black" d="M498.16,-160.03C484.18,-168.63 469.66,-180.3 461,-195 423.78,-258.18 473.91,-468.37 425,-523 421.67,-526.72 417.86,-529.89 413.72,-532.57"/>
<polygon fill="black" stroke="black" points="411.9,-529.58 404.8,-537.44 415.25,-535.72 411.9,-529.58"/>
</g>
<!-- module.sonarqube.aws_instance.this&#45;&gt;module.network.aws_subnet.this -->
<g id="edge21" class="edge">
<title>module.sonarqube.aws_instance.this&#45;&gt;module.network.aws_subnet.this</title>
<path fill="none" stroke="black" d="M504.67,-160.18C490.33,-169.45 473.73,-181.59 461,-195 440.37,-216.73 449.08,-234.17 425,-252 416.58,-258.24 406.79,-263.04 396.73,-266.72"/>
<polygon fill="black" stroke="black" points="395.42,-263.47 387.02,-269.93 397.61,-270.12 395.42,-263.47"/>
</g>
<!-- module.sonarqube.aws_instance.this&#45;&gt;module.sonarqube.data.aws_ami.amazon_linux -->
<g id="edge22" class="edge">
<title>module.sonarqube.aws_instance.this&#45;&gt;module.sonarqube.data.aws_ami.amazon_linux</title>
<path fill="none" stroke="black" d="M470.29,-125.06C450.09,-119.86 427.63,-114.07 406.58,-108.64"/>
<polygon fill="black" stroke="black" points="407.25,-105.2 396.69,-106.09 405.5,-111.98 407.25,-105.2"/>
</g>
<!-- module.sonarqube.aws_instance.this&#45;&gt;module.sonarqube.data.aws_ami.ubuntu -->
<g id="edge23" class="edge">
<title>module.sonarqube.aws_instance.this&#45;&gt;module.sonarqube.data.aws_ami.ubuntu</title>
<path fill="none" stroke="black" d="M470.29,-142C452.77,-142 433.56,-142 415.03,-142"/>
<polygon fill="black" stroke="black" points="414.83,-138.5 404.83,-142 414.83,-145.5 414.83,-138.5"/>
</g>
<!-- module.sonarqube.aws_security_group.this -->
<g id="node20" class="node">
<title>module.sonarqube.aws_security_group.this</title>
<polygon fill="none" stroke="black" points="413,-52 238,-52 238,-16 413,-16 413,-52"/>
<text text-anchor="middle" x="325.5" y="-30.3" font-family="sans-serif" font-size="14.00">aws_security_group.this</text>
</g>
<!-- module.sonarqube.aws_instance.this&#45;&gt;module.sonarqube.aws_security_group.this -->
<g id="edge24" class="edge">
<title>module.sonarqube.aws_instance.this&#45;&gt;module.sonarqube.aws_security_group.this</title>
<path fill="none" stroke="black" d="M515.78,-123.7C494.58,-105.41 459.6,-77.67 425,-61 420.98,-59.06 416.8,-57.25 412.53,-55.55"/>
<polygon fill="black" stroke="black" points="413.66,-52.23 403.07,-52.01 411.21,-58.79 413.66,-52.23"/>
</g>
<!-- module.sonarqube.aws_security_group.this&#45;&gt;module.network.aws_vpc.this -->
<g id="edge25" class="edge">
<title>module.sonarqube.aws_security_group.this&#45;&gt;module.network.aws_vpc.this</title>
<path fill="none" stroke="black" d="M237.92,-49.31C230.82,-52.5 224.05,-56.36 218,-61 153.54,-110.46 118.09,-204.27 103.71,-251.03"/>
<polygon fill="black" stroke="black" points="100.3,-250.22 100.81,-260.8 107.01,-252.21 100.3,-250.22"/>
</g>
</g>
</svg>
